<svg width="69" height="71" viewBox="0 0 69 71" fill="none" xmlns="http://www.w3.org/2000/svg">
<path d="M3 3H8.62916C12.1231 3 14.8729 6.00867 14.5818 9.47026L11.8966 41.6921C11.4437 46.9654 15.617 51.4946 20.9226 51.4946H55.3767C60.0353 51.4946 64.1116 47.6771 64.4674 43.0509L66.2144 18.7874C66.6026 13.4171 62.5264 9.04969 57.1237 9.04969H15.3582" stroke="white" stroke-width="4.85269" stroke-miterlimit="10" stroke-linecap="round" stroke-linejoin="round"/>
<path d="M49.1006 67.7026C51.3341 67.7026 53.1445 65.8922 53.1445 63.6587C53.1445 61.4251 51.3341 59.6147 49.1006 59.6147C46.867 59.6147 45.0567 61.4251 45.0567 63.6587C45.0567 65.8922 46.867 67.7026 49.1006 67.7026Z" stroke="white" stroke-width="4.85269" stroke-miterlimit="10" stroke-linecap="round" stroke-linejoin="round"/>
<path d="M23.2196 67.7026C25.453 67.7026 27.2635 65.8922 27.2635 63.6587C27.2635 61.4251 25.453 59.6147 23.2196 59.6147C20.9862 59.6147 19.1756 61.4251 19.1756 63.6587C19.1756 65.8922 20.9862 67.7026 23.2196 67.7026Z" stroke="white" stroke-width="4.85269" stroke-miterlimit="10" stroke-linecap="round" stroke-linejoin="round"/>
<path d="M25.6459 22.4108H64.4674" stroke="white" stroke-width="4.85269" stroke-miterlimit="10" stroke-linecap="round" stroke-linejoin="round"/>
</svg>
